<svg xmlns="http://www.w3.org/2000/svg" width="720" height="420" aria-labelledby="title desc" role="img" viewBox="0 0 720 420"><title id="title">Hyounkyu Oh — Frontend / Application Engineer</title><desc id="desc">Editor and Builder state connected through save, load, Runtime, and real-environment verification</desc><defs><linearGradient id="bg" x1="0" x2="1" y1="0" y2="1"><stop offset="0" stop-color="#f8fbff"/><stop offset=".55" stop-color="#f3f7ff"/><stop offset="1" stop-color="#f8f5ff"/></linearGradient><linearGradient id="accent" x1="0" x2="1" y1="0" y2="0"><stop offset="0" stop-color="#2563eb"/><stop offset=".5" stop-color="#06b6d4"/><stop offset="1" stop-color="#8b5cf6"/></linearGradient><pattern id="grid" width="28" height="28" patternUnits="userSpaceOnUse"><path fill="none" stroke="#2563eb" stroke-opacity=".08" d="M28 0H0V28"/></pattern><filter id="shadow" width="160%" height="160%" x="-30%" y="-30%"><feDropShadow dx="0" dy="12" flood-color="#1d4ed8" flood-opacity=".13" stdDeviation="16"/></filter><clipPath id="frame"><rect width="720" height="420" rx="28"/></clipPath><style>@keyframes pulse{0%{opacity:.68}50%{opacity:1;transform:scale(1.16)}}text{font-family:Inter,Segoe UI,Arial,sans-serif}.flow{animation:flow 12s linear infinite}.pulse{transform-box:fill-box;transform-origin:center;animation:pulse 3.2s ease-in-out infinite}@media (prefers-reduced-motion:reduce){.flow,.pulse{animation:none}}</style></defs><g clip-path="url(#frame)"><rect width="720" height="420" fill="url(#bg)"/><rect width="720" height="420" fill="url(#grid)"/><circle cx="690" cy="35" r="180" fill="#8b5cf6" opacity=".07"/><circle cx="620" cy="410" r="210" fill="#06b6d4" opacity=".07"/><path fill="none" stroke="url(#accent)" stroke-width="2" d="M0 374c142-53 228 27 371-22 124-42 223-80 349-51" opacity=".25"/><g transform="translate(38 34)"><rect width="270" height="34" fill="#fff" stroke="#dbe4f0" rx="17"/><circle cx="18" cy="17" r="4" fill="#10b981" class="pulse"/><text x="32" y="22" fill="#64748b" font-size="12" font-weight="700" letter-spacing="1.7">OKORION / PRODUCT DELIVERY</text><text y="109" fill="#0f172a" font-size="50" font-weight="800" letter-spacing="-1.8">HYOUNKYU OH</text><rect width="385" height="5" y="128" fill="url(#accent)" rx="2.5"/><text y="176" fill="#334155" font-size="24" font-weight="650">Frontend / Application</text><text y="208" fill="#334155" font-size="24" font-weight="650">Engineer</text><text y="239" fill="#64748b" font-size="14">Editor · Builder · Runtime Integration</text><g filter="url(#shadow)" transform="translate(0 270)"><rect width="644" height="108" fill="#fff" stroke="#dbe4f0" rx="20"/><text x="20" y="28" fill="#64748b" font-size="10" font-weight="800" letter-spacing="1.4">PRODUCT FLOW</text><g font-size="10.5" font-weight="800"><g transform="translate(20 45)"><rect width="112" height="42" fill="#eff6ff" stroke="#bfdbfe" rx="12"/><text x="56" y="26" fill="#1d4ed8" text-anchor="middle">EDITOR</text></g><path stroke="#2563eb" stroke-dasharray="4 5" stroke-width="2" d="M120 21h24" class="flow" transform="translate(20 45)"/><g transform="translate(20 45) translate(152)"><rect width="112" height="42" fill="#ecfeff" stroke="#a5f3fc" rx="12"/><text x="56" y="26" fill="#0e7490" text-anchor="middle">SAVE / LOAD</text></g><path stroke="#06b6d4" stroke-dasharray="4 5" stroke-width="2" d="M272 21h24" class="flow" transform="translate(20 45)"/><g transform="translate(20 45) translate(304)"><rect width="112" height="42" fill="#f5f3ff" stroke="#ddd6fe" rx="12"/><text x="56" y="26" fill="#6d28d9" text-anchor="middle">RUNTIME</text></g><path stroke="#8b5cf6" stroke-dasharray="4 5" stroke-width="2" d="M424 21h24" class="flow" transform="translate(20 45)"/><g transform="translate(20 45) translate(456)"><rect width="148" height="42" fill="#f3f7ff" stroke="#dbe4f0" rx="12"/><text x="74" y="26" fill="#334155" text-anchor="middle">DEVICE · FIELD</text></g></g></g></g></g></svg>