<svg xmlns="http://www.w3.org/2000/svg" width="1200" height="360" aria-labelledby="title desc" role="img" viewBox="0 0 1200 360"><title id="title">Hyounkyu Oh — Frontend / Application Engineer</title><desc id="desc">Editor and Builder state connected through save, load, Runtime, and real-environment verification</desc><defs><linearGradient id="bg" x1="0" x2="1" y1="0" y2="1"><stop offset="0" stop-color="#0b1120"/><stop offset=".55" stop-color="#101827"/><stop offset="1" stop-color="#17142b"/></linearGradient><linearGradient id="accent" x1="0" x2="1" y1="0" y2="0"><stop offset="0" stop-color="#2563eb"/><stop offset=".5" stop-color="#06b6d4"/><stop offset="1" stop-color="#8b5cf6"/></linearGradient><pattern id="grid" width="28" height="28" patternUnits="userSpaceOnUse"><path fill="none" stroke="#60a5fa" stroke-opacity=".08" d="M28 0H0V28"/></pattern><filter id="shadow" width="160%" height="160%" x="-30%" y="-30%"><feDropShadow dx="0" dy="12" flood-color="#60a5fa" flood-opacity=".13" stdDeviation="16"/></filter><clipPath id="frame"><rect width="1200" height="360" rx="28"/></clipPath><style>@keyframes pulse{0%{opacity:.68}50%{opacity:1;transform:scale(1.16)}}text{font-family:Inter,Segoe UI,Arial,sans-serif}.flow{animation:flow 12s linear infinite}.pulse{transform-box:fill-box;transform-origin:center;animation:pulse 3.2s ease-in-out infinite}@media (prefers-reduced-motion:reduce){.flow,.pulse{animation:none}}</style></defs><g clip-path="url(#frame)"><rect width="1200" height="360" fill="url(#bg)"/><rect width="1200" height="360" fill="url(#grid)"/><circle cx="1120" cy="-40" r="220" fill="#8b5cf6" opacity=".055"/><circle cx="905" cy="410" r="250" fill="#06b6d4" opacity=".055"/><path fill="none" stroke="url(#accent)" stroke-width="2" d="M0 322C235 264 389 378 635 310s360-96 565-31" opacity=".18"/><g transform="translate(72 58)"><rect width="270" height="32" fill="#111827" stroke="#293548" rx="16"/><circle cx="17" cy="16" r="4" fill="#10b981" class="pulse"/><text x="31" y="21" fill="#94a3b8" font-size="12" font-weight="700" letter-spacing="1.7">OKORION / PRODUCT DELIVERY</text><text x="0" y="109" fill="#f8fafc" font-size="54" font-weight="800" letter-spacing="-2">HYOUNKYU OH</text><rect width="430" height="5" x="0" y="129" fill="url(#accent)" rx="2.5"/><text x="0" y="174" fill="#e2e8f0" font-size="24" font-weight="650">Frontend / Application Engineer</text><text x="0" y="207" fill="#94a3b8" font-size="15">Editor · Builder · Runtime Integration</text><g><g transform="translate(0 235)"><rect width="112" height="34" fill="#102444" stroke="#1d4ed8" rx="17"/><text x="56" y="22" fill="#93c5fd" font-size="11" font-weight="700" text-anchor="middle">STATE FLOW</text></g><g transform="translate(0 235) translate(124)"><rect width="112" height="34" fill="#0b2b34" stroke="#0e7490" rx="17"/><text x="56" y="22" fill="#67e8f9" font-size="11" font-weight="700" text-anchor="middle">SAVE / LOAD</text></g><g transform="translate(0 235) translate(248)"><rect width="122" height="34" fill="#251b45" stroke="#6d28d9" rx="17"/><text x="61" y="22" fill="#c4b5fd" font-size="11" font-weight="700" text-anchor="middle">FIELD CHECK</text></g></g></g><g filter="url(#shadow)" transform="translate(690 56)"><rect width="438" height="248" fill="#111827" stroke="#293548" rx="24"/><text x="24" y="34" fill="#94a3b8" font-size="11" font-weight="800" letter-spacing="1.6">EDITOR · BUILDER · RUNTIME</text><circle cx="397" cy="28" r="5" fill="#10b981" class="pulse"/><g><g transform="translate(24 58)"><rect width="104" height="70" fill="#102444" stroke="#1d4ed8" rx="14"/><text x="52" y="31" fill="#93c5fd" font-size="11" font-weight="800" text-anchor="middle">EDITOR</text><text x="52" y="50" fill="#94a3b8" font-size="9.5" text-anchor="middle">USER ACTION</text></g><path fill="none" stroke="#2563eb" stroke-dasharray="4 5" stroke-width="2" d="M112 35h32" class="flow" transform="translate(24 58)"/><path fill="none" stroke="#2563eb" stroke-width="2" d="m139 30 7 5-7 5" transform="translate(24 58)"/><g transform="translate(24 58) translate(154)"><rect width="104" height="70" fill="#0b2b34" stroke="#0e7490" rx="14"/><text x="52" y="31" fill="#67e8f9" font-size="11" font-weight="800" text-anchor="middle">STATE</text><text x="52" y="50" fill="#94a3b8" font-size="9.5" text-anchor="middle">SAVE / LOAD</text></g><path fill="none" stroke="#06b6d4" stroke-dasharray="4 5" stroke-width="2" d="M266 35h32" class="flow" transform="translate(24 58)"/><path fill="none" stroke="#06b6d4" stroke-width="2" d="m293 30 7 5-7 5" transform="translate(24 58)"/><g transform="translate(24 58) translate(308)"><rect width="82" height="70" fill="#251b45" stroke="#6d28d9" rx="14"/><text x="41" y="31" fill="#c4b5fd" font-size="11" font-weight="800" text-anchor="middle">RUNTIME</text><text x="41" y="50" fill="#94a3b8" font-size="9.5" text-anchor="middle">EXECUTE</text></g></g><g transform="translate(24 151)"><rect width="390" height="70" fill="#101827" stroke="#293548" rx="16"/><text x="18" y="26" fill="#94a3b8" font-size="10" font-weight="800" letter-spacing="1.4">REAL-ENVIRONMENT VERIFICATION</text><g fill="#e2e8f0" font-size="10.5" font-weight="700" transform="translate(18 38)"><text>DEVICE</text><circle cx="71" cy="-4" r="3" fill="#2563eb"/><text x="85">FIELD</text><circle cx="136" cy="-4" r="3" fill="#06b6d4"/><text x="150">OPERATIONS</text><circle cx="235" cy="-4" r="3" fill="#8b5cf6"/><text x="249">SERVER</text></g></g></g></g></svg>