<svg xmlns="http://www.w3.org/2000/svg" width="1200" height="450" viewBox="0 0 1200 450" role="img" aria-labelledby="title desc">
  <title id="title">okorion repository constellation</title>
  <desc id="desc">Selected public repositories connected to a recent contribution pulse</desc>
  <defs>
    <pattern id="grid" width="32" height="32" patternUnits="userSpaceOnUse"><path d="M32 0H0V32" fill="none" stroke="#60a5fa" stroke-opacity=".055"/></pattern>
    <filter id="glow" x="-60%" y="-60%" width="220%" height="220%"><feDropShadow dx="0" dy="0" stdDeviation="9" flood-color="#2563eb" flood-opacity=".4"/></filter>
    <style>text{font-family:Inter,Segoe UI,Arial,sans-serif}.flow{animation:flow 16s linear infinite}.pulse{transform-box:fill-box;transform-origin:center;animation:pulse 3s ease-in-out infinite}@keyframes flow{to{stroke-dashoffset:-130}}@keyframes pulse{0%,100%{opacity:.65}50%{opacity:1}}@media(prefers-reduced-motion:reduce){.flow,.pulse{animation:none}}</style>
  </defs>
  <rect width="1200" height="450" rx="24" fill="#0b1120"/>
  <rect width="1200" height="450" rx="24" fill="url(#grid)"/>
  <text x="40" y="39" font-size="12" font-weight="800" letter-spacing="2" fill="#94a3b8">PUBLIC REPOSITORY CONSTELLATION</text>
  <text x="1160" y="39" text-anchor="end" font-size="11" fill="#94a3b8">DATA THROUGH 2026-08-04</text>
  <path d="M600 178 C390.5 178,390.5 149,181 149" fill="none" stroke="#475569" stroke-width="1.4" stroke-dasharray="5 8" opacity=".65" class="flow"/><path d="M600 178 C493.5 178,493.5 87,387 87" fill="none" stroke="#475569" stroke-width="1.4" stroke-dasharray="5 8" opacity=".65" class="flow"/><path d="M600 178 C500 178,500 285,400 285" fill="none" stroke="#475569" stroke-width="1.4" stroke-dasharray="5 8" opacity=".65" class="flow"/><path d="M600 178 C725.5 178,725.5 91,851 91" fill="none" stroke="#475569" stroke-width="1.4" stroke-dasharray="5 8" opacity=".65" class="flow"/><path d="M600 178 C818.5 178,818.5 183,1037 183" fill="none" stroke="#475569" stroke-width="1.4" stroke-dasharray="5 8" opacity=".65" class="flow"/><path d="M600 178 C727 178,727 297,854 297" fill="none" stroke="#475569" stroke-width="1.4" stroke-dasharray="5 8" opacity=".65" class="flow"/>
  <g transform="translate(600 178)" filter="url(#glow)">
    <circle r="70" fill="#111827" stroke="#2563eb" stroke-width="2"/>
    <circle r="55" fill="#2563eb"/>
    <text y="-4" text-anchor="middle" font-size="15" font-weight="800" letter-spacing="1.4" fill="#ffffff">OKORION</text>
    <text y="18" text-anchor="middle" font-size="9" font-weight="700" letter-spacing="1.1" fill="#ffffff" opacity=".76">BUILD · RENDER · SHIP</text>
  </g>
  <g transform="translate(86 116)">
      <rect width="190" height="66" rx="15" fill="#0b3038" stroke="#22d3ee" stroke-opacity=".55"/>
      <circle cx="18" cy="20" r="5" fill="#22d3ee" class="pulse"/>
      <text x="31" y="25" font-size="13" font-weight="700" fill="#f8fafc">localmesh-studio</text>
      <text x="16" y="47" font-size="10.5" fill="#94a3b8">TypeScript · 2026-08-03</text>
    </g>
    <g transform="translate(312 54)">
      <rect width="150" height="66" rx="15" fill="#2b1d4c" stroke="#a78bfa" stroke-opacity=".55"/>
      <circle cx="18" cy="20" r="5" fill="#a78bfa" class="pulse"/>
      <text x="31" y="25" font-size="13" font-weight="700" fill="#f8fafc">tech-blog</text>
      <text x="16" y="47" font-size="10.5" fill="#94a3b8">HTML · 2026-05-29</text>
    </g>
    <g transform="translate(318 252)">
      <rect width="164" height="66" rx="15" fill="#10264d" stroke="#60a5fa" stroke-opacity=".55"/>
      <circle cx="18" cy="20" r="5" fill="#60a5fa" class="pulse"/>
      <text x="31" y="25" font-size="13" font-weight="700" fill="#f8fafc">vizport-studio</text>
      <text x="16" y="47" font-size="10.5" fill="#94a3b8">TypeScript · 2026-08-03</text>
    </g>
    <g transform="translate(744 58)">
      <rect width="214" height="66" rx="15" fill="#2b1d4c" stroke="#a78bfa" stroke-opacity=".55"/>
      <circle cx="18" cy="20" r="5" fill="#a78bfa" class="pulse"/>
      <text x="31" y="25" font-size="13" font-weight="700" fill="#f8fafc">mermaid-sky-exporter</text>
      <text x="16" y="47" font-size="10.5" fill="#94a3b8">TypeScript · 2026-08-03</text>
    </g>
    <g transform="translate(926 150)">
      <rect width="222" height="66" rx="15" fill="#3b2a0d" stroke="#fbbf24" stroke-opacity=".55"/>
      <circle cx="18" cy="20" r="5" fill="#fbbf24" class="pulse"/>
      <text x="31" y="25" font-size="13" font-weight="700" fill="#f8fafc">codex-telegram-monitor</text>
      <text x="16" y="47" font-size="10.5" fill="#94a3b8">PowerShell · 2026-06-25</text>
    </g>
    <g transform="translate(768 264)">
      <rect width="172" height="66" rx="15" fill="#3d1822" stroke="#fb7185" stroke-opacity=".55"/>
      <circle cx="18" cy="20" r="5" fill="#fb7185" class="pulse"/>
      <text x="31" y="25" font-size="13" font-weight="700" fill="#f8fafc">maintainer-bot</text>
      <text x="16" y="47" font-size="10.5" fill="#94a3b8">PowerShell · 2026-08-03</text>
    </g>
  <g>
    <rect x="40" y="348" width="1120" height="78" rx="16" fill="#111827" stroke="#293548"/>
    <text x="64" y="378" font-size="11" font-weight="800" letter-spacing="1.7" fill="#94a3b8">26-WEEK CONTRIBUTION PULSE</text>
    <text x="64" y="406" font-size="24" font-weight="800" fill="#f8fafc">3271</text>
    <text x="125" y="405" font-size="11" fill="#94a3b8">CONTRIBUTIONS / LAST YEAR</text>
    <rect x="470" y="415" width="14" height="3" rx="4" fill="#38bdf8" opacity="0.45"/><rect x="492" y="415" width="14" height="3" rx="4" fill="#38bdf8" opacity="0.46"/><rect x="514" y="415" width="14" height="3" rx="4" fill="#38bdf8" opacity="0.46"/><rect x="536" y="415" width="14" height="3" rx="4" fill="#38bdf8" opacity="0.45"/><rect x="558" y="415" width="14" height="3" rx="4" fill="#38bdf8" opacity="0.46"/><rect x="580" y="415" width="14" height="3" rx="4" fill="#38bdf8" opacity="0.46"/><rect x="602" y="410" width="14" height="8" rx="4" fill="#38bdf8" opacity="0.54"/><rect x="624" y="399" width="14" height="19" rx="4" fill="#38bdf8" opacity="0.68"/><rect x="646" y="374" width="14" height="44" rx="4" fill="#38bdf8" opacity="0.98"/><rect x="668" y="372" width="14" height="46" rx="4" fill="#38bdf8" opacity="1.00"/><rect x="690" y="413" width="14" height="5" rx="4" fill="#38bdf8" opacity="0.51"/><rect x="712" y="415" width="14" height="3" rx="4" fill="#38bdf8" opacity="0.46"/><rect x="734" y="415" width="14" height="3" rx="4" fill="#38bdf8" opacity="0.16"/><rect x="756" y="415" width="14" height="3" rx="4" fill="#38bdf8" opacity="0.46"/><rect x="778" y="415" width="14" height="3" rx="4" fill="#38bdf8" opacity="0.45"/><rect x="800" y="415" width="14" height="3" rx="4" fill="#38bdf8" opacity="0.46"/><rect x="822" y="415" width="14" height="3" rx="4" fill="#38bdf8" opacity="0.16"/><rect x="844" y="414" width="14" height="4" rx="4" fill="#38bdf8" opacity="0.50"/><rect x="866" y="415" width="14" height="3" rx="4" fill="#38bdf8" opacity="0.47"/><rect x="888" y="400" width="14" height="18" rx="4" fill="#38bdf8" opacity="0.66"/><rect x="910" y="415" width="14" height="3" rx="4" fill="#38bdf8" opacity="0.47"/><rect x="932" y="415" width="14" height="3" rx="4" fill="#38bdf8" opacity="0.46"/><rect x="954" y="413" width="14" height="5" rx="4" fill="#38bdf8" opacity="0.51"/><rect x="976" y="415" width="14" height="3" rx="4" fill="#38bdf8" opacity="0.45"/><rect x="998" y="413" width="14" height="5" rx="4" fill="#38bdf8" opacity="0.51"/><rect x="1020" y="412" width="14" height="6" rx="4" fill="#38bdf8" opacity="0.52"/>
    <text x="1134" y="406" text-anchor="end" font-size="10.5" fill="#94a3b8">RECENT →</text>
  </g>
</svg>
